<svg xmlns="http://www.w3.org/2000/svg" xmlns:xlink="http://www.w3.org/1999/xlink" version="1.1" x="0px" y="0px" viewBox="0 0 100 100" style="enable-background:new 0 0 100 100;" xml:space="preserve"><g><circle cx="37.355" cy="56.553" r="3.908" fill="#fffaee"/><circle cx="50" cy="72.508" r="4.751" fill="#fffaee"/><path d="M94.758,67.718c-0.965-3.312-1.962-6.735-3.371-9.664c-3.136-6.464-5.591-11.235-7.489-14.553   c1.734-2.724,3.061-5.662,3.944-8.739c1.447-4.982,3.098-15.048-1.007-17.48c-1.17-0.705-2.48-0.429-4.881,0.074   c-2.661,0.565-5.014,1.557-8.988,3.786c-1.841,1.036-3.586,2.093-5.321,3.207c-3.405-2.058-7.318-3.42-11.422-4.091   c-0.126-0.057-0.264-0.094-0.412-0.094c-0.026,0-0.047,0.013-0.072,0.015c-1.856-0.278-3.743-0.428-5.639-0.425   c-0.034-0.003-0.063-0.02-0.097-0.02c-0.047,0-0.087,0.02-0.132,0.027c-6.143,0.048-12.317,1.58-17.52,4.584   c-1.733-1.112-3.476-2.169-5.316-3.205c-3.974-2.229-6.326-3.22-9.007-3.789c-2.383-0.5-3.694-0.775-4.854-0.074   c-4.111,2.437-2.461,12.502-1.015,17.481c0.885,3.08,2.211,6.019,3.945,8.742c-1.898,3.317-4.354,8.089-7.491,14.556   c-1.407,2.926-2.404,6.35-3.369,9.661l-0.029,0.102c-0.488,1.677-0.113,3.477,1.002,4.815c1.125,1.35,2.844,2.052,4.597,1.87   c2.442-0.251,5.518-0.454,9.813-0.097l2.206,0.182c5.15,0.419,6.769,0.551,11.588,1.494c1.907,1.629,4.49,3.635,7.797,5.104   c0.984,0.434,1.947,0.813,2.861,1.129c1.588,0.549,3.256,0.822,4.924,0.822s3.337-0.274,4.924-0.822   c0.914-0.315,1.877-0.695,2.864-1.13c3.304-1.468,5.887-3.474,7.794-5.103c4.819-0.943,6.438-1.075,11.588-1.494l2.206-0.182   c4.299-0.358,7.372-0.153,9.813,0.097c1.761,0.184,3.473-0.521,4.597-1.87c1.115-1.339,1.49-3.139,1.002-4.815L94.758,67.718z    M20.79,72.416c-1.595-0.133-3.021-0.189-4.319-0.197c0.253-0.507,0.509-1.031,0.777-1.584c1.849-3.812,4.15-8.554,8.326-12.765   c2.917-2.941,5.613-5.091,8.487-6.764c1.502-0.876,3.255-1.065,4.933-0.538c1.705,0.536,3.115,1.773,3.867,3.396l1.893,4.083   c0.688,1.483,0.123,3.255-1.285,4.031c-2.432,1.341-4.294,2.719-5.693,4.213c-2.446,2.612-3.257,4.894-3.908,6.727   c-0.108,0.302-0.212,0.585-0.318,0.863c-3.995-0.749-5.792-0.897-10.557-1.285L20.79,72.416z M79.21,72.416l-2.202,0.18   c-4.613,0.376-6.441,0.526-10.179,1.215c-0.798-1.988-2.016-4.756-4.604-7.519c-1.399-1.494-3.262-2.872-5.693-4.213   c-1.408-0.776-1.974-2.548-1.285-4.031l1.893-4.083c0.752-1.622,2.162-2.859,3.867-3.396c1.677-0.527,3.43-0.338,4.933,0.538   c2.874,1.673,5.57,3.822,8.487,6.764c4.176,4.211,6.478,8.953,8.326,12.765c0.268,0.552,0.525,1.076,0.777,1.583   C82.231,72.226,80.805,72.282,79.21,72.416z M92.248,71.354c-0.707,0.85-1.738,1.282-2.856,1.16   c-1.065-0.108-2.257-0.206-3.6-0.259c-0.399-0.764-0.806-1.6-1.24-2.494c-1.914-3.944-4.296-8.854-8.706-13.3   c-3.043-3.069-5.872-5.32-8.901-7.084c-1.994-1.161-4.317-1.417-6.538-0.717c-2.241,0.704-4.093,2.33-5.082,4.461l-1.893,4.083   c-1.128,2.433-0.19,5.343,2.135,6.625c2.213,1.22,3.962,2.508,5.199,3.828c2.192,2.341,3.322,4.737,4.066,6.549   c-0.128,0.041-0.25,0.099-0.353,0.188c-1.821,1.568-4.319,3.55-7.5,4.962c-0.934,0.411-1.845,0.771-2.707,1.068   c-2.756,0.951-5.787,0.951-8.543,0c-0.862-0.298-1.773-0.657-2.704-1.067c-3.184-1.413-5.682-3.395-7.503-4.963   c-0.008-0.007-0.018-0.01-0.026-0.017c0.085-0.228,0.17-0.449,0.255-0.692c0.62-1.744,1.323-3.721,3.483-6.028   c1.237-1.32,2.986-2.608,5.199-3.828c2.325-1.282,3.263-4.192,2.135-6.625l-1.893-4.083c-0.989-2.131-2.841-3.757-5.082-4.461   c-2.221-0.7-4.544-0.444-6.538,0.717c-3.029,1.764-5.858,4.015-8.901,7.084c-4.41,4.446-6.792,9.355-8.706,13.3   c-0.434,0.894-0.84,1.73-1.24,2.495c-1.343,0.053-2.534,0.15-3.6,0.258c-1.106,0.119-2.148-0.31-2.856-1.16   c-0.699-0.839-0.925-1.924-0.619-2.977l0.029-0.101c0.942-3.233,1.916-6.577,3.25-9.351c3.286-6.773,5.813-11.665,7.727-14.954   c0.191-0.329,0.18-0.738-0.03-1.056c-1.788-2.698-3.144-5.629-4.03-8.714c-1.812-6.237-2.198-13.835,0.12-15.209   c0.492-0.3,1.532-0.081,3.432,0.318c2.095,0.444,4.146,1.172,8.424,3.571c1.983,1.116,3.854,2.248,5.721,3.462   c0.063,0.041,0.134,0.055,0.202,0.08c0.042,0.015,0.079,0.039,0.123,0.049c0.091,0.021,0.18,0.018,0.271,0.013   c0.037-0.002,0.073,0.004,0.111-0.002c0.095-0.016,0.181-0.053,0.268-0.095c0.029-0.014,0.06-0.015,0.088-0.031   c4.769-2.886,10.464-4.403,16.165-4.588v7.654c0,0.553,0.447,1,1,1s1-0.447,1-1V21.76c1.278,0.029,2.551,0.113,3.809,0.278v2.098   c0,0.553,0.447,1,1,1s1-0.447,1-1v-1.772c3.731,0.718,7.272,2.051,10.337,4.007c0.167,0.106,0.354,0.157,0.537,0.157   c0.252,0,0.499-0.096,0.687-0.274c1.818-1.178,3.643-2.283,5.574-3.37c4.279-2.4,6.33-3.128,8.439-3.575   c1.883-0.396,2.922-0.615,3.424-0.312c2.312,1.37,1.925,8.968,0.112,15.208c-0.886,3.082-2.241,6.013-4.029,8.711   c-0.21,0.317-0.222,0.727-0.03,1.056c1.913,3.289,4.44,8.181,7.725,14.951c1.336,2.776,2.31,6.12,3.252,9.354l0.029,0.101   C93.173,69.431,92.947,70.516,92.248,71.354z" fill="#fffaee"/><circle cx="62.645" cy="56.553" r="3.908" fill="#fffaee"/><path d="M17.699,22.779c-0.264-0.087-0.544-0.064-0.788,0.064c-0.242,0.129-0.421,0.352-0.495,0.615   c-0.475,1.706-0.34,5.416,1.029,9.862c0.792,2.566,1.73,4.598,2.871,6.21c0.195,0.275,0.504,0.422,0.817,0.422   c0.199,0,0.401-0.06,0.577-0.184c0.45-0.319,0.558-0.943,0.238-1.395c-1.017-1.436-1.864-3.281-2.592-5.644   c-1.031-3.346-1.266-6.068-1.169-7.657c3.825,1.422,6.74,3.246,9.11,5.688c0.385,0.396,1.018,0.406,1.414,0.021   s0.406-1.018,0.021-1.414C25.906,26.456,22.399,24.362,17.699,22.779z" fill="#fffaee"/><path d="M83.206,23.459c-0.074-0.264-0.253-0.486-0.495-0.615c-0.243-0.128-0.525-0.15-0.788-0.064   c-4.702,1.583-8.208,3.677-11.035,6.591c-0.385,0.396-0.375,1.029,0.021,1.414c0.396,0.385,1.028,0.375,1.414-0.021   c2.369-2.441,5.284-4.266,9.11-5.688c0.096,1.588-0.138,4.311-1.169,7.657c-0.728,2.362-1.576,4.209-2.593,5.644   c-0.318,0.451-0.212,1.075,0.238,1.395c0.176,0.124,0.377,0.184,0.577,0.184c0.313,0,0.622-0.146,0.817-0.422   c1.141-1.61,2.08-3.643,2.872-6.211C83.546,28.873,83.68,25.163,83.206,23.459z" fill="#fffaee"/></g><text x="0" y="115" fill="#000000" font-size="5px" font-weight="bold" font-family="'Helvetica Neue', Helvetica, Arial-Unicode, Arial, Sans-serif">Created by Maxim Kulikov</text><text x="0" y="120" fill="#000000" font-size="5px" font-weight="bold" font-family="'Helvetica Neue', Helvetica, Arial-Unicode, Arial, Sans-serif">from the Noun Project</text></svg>